<svg preserveAspectRatio="none" overflow="visible" style="display: block;" width="40" height="40" viewBox="0 0 40 40" fill="none" xmlns="http://www.w3.org/2000/svg">
<g id="Frame 2147232961">
<g clip-path="url(#clip0_0_755)">
<rect width="40" height="40" rx="9.49367" fill="#5C2C4A"/>
<g id="Rectangle 27" filter="url(#filter0_d_0_755)">
<rect width="40" height="40" rx="9.54128" fill="#0E6331"/>
</g>
<g id="Group">
<path id="Vector" d="M11.7984 9.73416C12.9386 9.73416 13.8629 8.80986 13.8629 7.66968C13.8629 6.5295 12.9386 5.6052 11.7984 5.6052C10.6582 5.6052 9.73391 6.5295 9.73391 7.66968C9.73391 8.80986 10.6582 9.73416 11.7984 9.73416Z" fill="#30CD7A"/>
<path id="Vector_2" d="M11.7982 9.73417L11.9332 9.73827L12.0676 9.75162L12.2006 9.77368L12.3324 9.80447L12.4618 9.84347L12.588 9.8912L12.7112 9.94713L12.8302 10.0108L12.9452 10.0821L13.055 10.1606L13.1592 10.2463L13.2577 10.3387L13.3501 10.4372L13.4358 10.5419L13.5143 10.6517L13.5856 10.7662L13.6497 10.8852L13.7052 11.0084L13.7529 11.1346L13.7919 11.2639L13.8227 11.3958L13.8447 11.5287L13.8581 11.6632L13.8622 11.7986L15.9267 9.73417L15.7917 9.72955L15.6573 9.71621L15.5238 9.69414L15.3925 9.66386L15.2631 9.62435L15.1369 9.57663L15.0137 9.5212L14.8947 9.45757L14.7797 9.38624L14.6699 9.30721L14.5657 9.22151L14.4672 9.12914L14.3748 9.03061L14.2892 8.92644L14.2101 8.81662L14.1388 8.70167L14.0752 8.58262L14.0197 8.45945L13.972 8.33322L13.933 8.2039L13.9022 8.07253L13.8802 7.9391L13.8668 7.80465L13.8622 7.66969L11.7982 9.73417Z" fill="#30CD7A"/>
<path id="Vector_3" d="M20.0557 9.73416C21.1958 9.73416 22.1201 8.80986 22.1201 7.66968C22.1201 6.5295 21.1958 5.6052 20.0557 5.6052C18.9155 5.6052 17.9912 6.5295 17.9912 7.66968C17.9912 8.80986 18.9155 9.73416 20.0557 9.73416Z" fill="#30CD7A"/>
<path id="Vector_4" d="M22.1201 7.66969H17.9912V11.7986H22.1201V7.66969Z" fill="#30CD7A"/>
<path id="Vector_5" d="M20.0558 9.73417L20.1908 9.73827L20.3253 9.75162L20.4587 9.77368L20.59 9.80447L20.7194 9.84347L20.8456 9.8912L20.9688 9.94713L21.0878 10.0108L21.2028 10.0821L21.3126 10.1606L21.4168 10.2463L21.5158 10.3387L21.6082 10.4372L21.6939 10.5419L21.7724 10.6517L21.8437 10.7662L21.9074 10.8852L21.9633 11.0084L22.0105 11.1346L22.05 11.2639L22.0808 11.3958L22.1024 11.5287L22.1157 11.6632L22.1203 11.7986L24.1848 9.73417L24.0498 9.72955L23.9154 9.71621L23.782 9.69414L23.6506 9.66386L23.5213 9.62435L23.3945 9.57663L23.2714 9.5212L23.1523 9.45757L23.0379 9.38624L22.928 9.30721L22.8234 9.22151L22.7248 9.12914L22.6325 9.03061L22.5468 8.92644L22.4682 8.81662L22.3969 8.70167L22.3333 8.58262L22.2773 8.45945L22.2296 8.33322L22.1906 8.2039L22.1598 8.07253L22.1378 7.9391L22.1244 7.80465L22.1203 7.66969L20.0558 9.73417Z" fill="#30CD7A"/>
<path id="Vector_6" d="M28.3133 9.73416C29.4535 9.73416 30.3778 8.80986 30.3778 7.66968C30.3778 6.5295 29.4535 5.6052 28.3133 5.6052C27.1731 5.6052 26.2488 6.5295 26.2488 7.66968C26.2488 8.80986 27.1731 9.73416 28.3133 9.73416Z" fill="#30CD7A"/>
<path id="Vector_7" d="M28.3131 9.73417L28.4486 9.73827L28.583 9.75162L28.716 9.77368L28.8478 9.80447L28.9772 9.84347L29.1034 9.8912L29.2266 9.94713L29.3456 10.0108L29.46 10.0821L29.5699 10.1606L29.6746 10.2463L29.7731 10.3387L29.8654 10.4372L29.9511 10.5419L30.0297 10.6517L30.101 10.7662L30.1646 10.8852L30.2206 11.0084L30.2683 11.1346L30.3073 11.2639L30.3381 11.3958L30.3601 11.5287L30.3735 11.6632L30.3776 11.7986L32.4421 9.73417L32.3071 9.72955L32.1727 9.71621L32.0392 9.69414L31.9079 9.66386L31.7785 9.62435L31.6523 9.57663L31.5291 9.5212L31.4101 9.45757L31.2951 9.38624L31.1853 9.30721L31.0811 9.22151L30.9826 9.12914L30.8902 9.03061L30.8046 8.92644L30.7255 8.81662L30.6542 8.70167L30.5906 8.58262L30.5351 8.45945L30.4874 8.33322L30.4479 8.2039L30.4176 8.07253L30.3956 7.9391L30.3822 7.80465L30.3776 7.66969L28.3131 9.73417Z" fill="#30CD7A"/>
<path id="Vector_8" d="M7.66941 13.8631C8.80959 13.8631 9.73389 12.9388 9.73389 11.7987C9.73389 10.6585 8.80959 9.73418 7.66941 9.73418C6.52923 9.73418 5.60493 10.6585 5.60493 11.7987C5.60493 12.9388 6.52923 13.8631 7.66941 13.8631Z" fill="#30CD7A"/>
<path id="Vector_9" d="M9.73389 11.7987H5.60493V15.9276H9.73389V11.7987Z" fill="#30CD7A"/>
<path id="Vector_10" d="M9.73373 11.7986L9.73784 11.6632L9.75118 11.5287L9.77324 11.3958L9.80403 11.2639L9.84303 11.1346L9.89076 11.0084L9.9467 10.8852L10.0103 10.7662L10.0817 10.6517L10.1602 10.5419L10.2459 10.4372L10.3382 10.3387L10.4368 10.2463L10.5415 10.1606L10.6513 10.0821L10.7657 10.0108L10.8848 9.94713L11.0079 9.8912L11.1342 9.84347L11.2635 9.80447L11.3954 9.77368L11.5283 9.75162L11.6627 9.73827L11.7982 9.73417L9.73373 7.66969L9.72911 7.80465L9.71577 7.9391L9.6937 8.07253L9.66342 8.2039L9.62391 8.33322L9.57619 8.45945L9.52076 8.58262L9.45713 8.70167L9.3858 8.81662L9.30677 8.92644L9.22107 9.03061L9.1287 9.12914L9.03017 9.22151L8.926 9.30721L8.81618 9.38624L8.70123 9.45757L8.58218 9.5212L8.45902 9.57663L8.33278 9.62435L8.20346 9.66386L8.07209 9.69414L7.93866 9.71621L7.80421 9.72955L7.66925 9.73417L9.73373 11.7986Z" fill="#30CD7A"/>
<path id="Vector_11" d="M15.9267 13.8631C17.0669 13.8631 17.9912 12.9388 17.9912 11.7987C17.9912 10.6585 17.0669 9.73418 15.9267 9.73418C14.7865 9.73418 13.8622 10.6585 13.8622 11.7987C13.8622 12.9388 14.7865 13.8631 15.9267 13.8631Z" fill="#30CD7A"/>
<path id="Vector_12" d="M20.0558 9.73418H15.9269V13.8631H20.0558V9.73418Z" fill="#30CD7A"/>
<path id="Vector_13" d="M17.9912 11.7987H13.8622V15.9276H17.9912V11.7987Z" fill="#30CD7A"/>
<path id="Vector_14" d="M15.9269 13.8626L16.0618 13.8673L16.1963 13.8806L16.3297 13.9027L16.4611 13.9334L16.5904 13.9725L16.7171 14.0202L16.8403 14.0756L16.9594 14.1392L17.0738 14.2106L17.1836 14.2896L17.2883 14.3753L17.3868 14.4677L17.4792 14.5662L17.5649 14.6704L17.6434 14.7802L17.7147 14.8951L17.7784 15.0142L17.8343 15.1373L17.882 15.2636L17.921 15.3929L17.9518 15.5243L17.9739 15.6577L17.9872 15.7921L17.9913 15.9271L20.0558 13.8626L19.9209 13.8585L19.7864 13.8452L19.653 13.8231L19.5216 13.7923L19.3923 13.7533L19.2661 13.7056L19.1429 13.6502L19.0238 13.586L18.9089 13.5147L18.7991 13.4362L18.6949 13.3505L18.5959 13.2581L18.5035 13.1596L18.4178 13.0554L18.3393 12.9456L18.2679 12.8306L18.2043 12.7116L18.1484 12.5884L18.1012 12.4622L18.0616 12.3329L18.0309 12.201L18.0093 12.0681L17.996 11.9336L17.9913 11.7987L15.9269 13.8626Z" fill="#30CD7A"/>
<path id="Vector_15" d="M17.9913 11.7986L17.996 11.6632L18.0093 11.5287L18.0309 11.3958L18.0616 11.2639L18.1012 11.1346L18.1484 11.0084L18.2043 10.8852L18.2679 10.7662L18.3393 10.6517L18.4178 10.5419L18.5035 10.4372L18.5959 10.3387L18.6949 10.2463L18.7991 10.1606L18.9089 10.0821L19.0238 10.0108L19.1429 9.94713L19.2661 9.8912L19.3923 9.84347L19.5216 9.80447L19.653 9.77368L19.7864 9.75162L19.9209 9.73827L20.0558 9.73417L17.9913 7.66969L17.9872 7.80465L17.9739 7.9391L17.9518 8.07253L17.921 8.2039L17.882 8.33322L17.8343 8.45945L17.7784 8.58262L17.7147 8.70167L17.6434 8.81662L17.5649 8.92644L17.4792 9.03061L17.3868 9.12914L17.2883 9.22151L17.1836 9.30721L17.0738 9.38624L16.9594 9.45757L16.8403 9.5212L16.7171 9.57663L16.5904 9.62435L16.4611 9.66386L16.3297 9.69414L16.1963 9.71621L16.0618 9.72955L15.9269 9.73417L17.9913 11.7986Z" fill="#30CD7A"/>
<path id="Vector_16" d="M20.0557 13.8631C21.1958 13.8631 22.1201 12.9388 22.1201 11.7987C22.1201 10.6585 21.1958 9.73418 20.0557 9.73418C18.9155 9.73418 17.9912 10.6585 17.9912 11.7987C17.9912 12.9388 18.9155 13.8631 20.0557 13.8631Z" fill="#30CD7A"/>
<path id="Vector_17" d="M24.1848 9.73418H20.0558V13.8631H24.1848V9.73418Z" fill="#30CD7A"/>
<path id="Vector_18" d="M22.1201 11.7987H17.9912V15.9276H22.1201V11.7987Z" fill="#30CD7A"/>
<path id="Vector_19" d="M20.0558 13.8626L20.1908 13.8673L20.3253 13.8806L20.4587 13.9027L20.59 13.9334L20.7194 13.9725L20.8456 14.0202L20.9688 14.0756L21.0878 14.1392L21.2028 14.2106L21.3126 14.2896L21.4168 14.3753L21.5158 14.4677L21.6082 14.5662L21.6939 14.6704L21.7724 14.7802L21.8437 14.8951L21.9074 15.0142L21.9633 15.1373L22.0105 15.2636L22.05 15.3929L22.0808 15.5243L22.1024 15.6577L22.1157 15.7921L22.1203 15.9271L24.1848 13.8626L24.0498 13.8585L23.9154 13.8452L23.782 13.8231L23.6506 13.7923L23.5213 13.7533L23.3945 13.7056L23.2714 13.6502L23.1523 13.586L23.0379 13.5147L22.928 13.4362L22.8234 13.3505L22.7248 13.2581L22.6325 13.1596L22.5468 13.0554L22.4682 12.9456L22.3969 12.8306L22.3333 12.7116L22.2773 12.5884L22.2296 12.4622L22.1906 12.3329L22.1598 12.201L22.1378 12.0681L22.1244 11.9336L22.1203 11.7987L20.0558 13.8626Z" fill="#30CD7A"/>
<path id="Vector_20" d="M24.1846 13.8631C25.3248 13.8631 26.2491 12.9388 26.2491 11.7987C26.2491 10.6585 25.3248 9.73418 24.1846 9.73418C23.0445 9.73418 22.1202 10.6585 22.1202 11.7987C22.1202 12.9388 23.0445 13.8631 24.1846 13.8631Z" fill="#30CD7A"/>
<path id="Vector_21" d="M26.2491 11.7987H22.1202V15.9276H26.2491V11.7987Z" fill="#30CD7A"/>
<path id="Vector_22" d="M26.2493 11.7986L26.2534 11.6632L26.2667 11.5287L26.2888 11.3958L26.3196 11.2639L26.3586 11.1346L26.4063 11.0084L26.4617 10.8852L26.5259 10.7661L26.5972 10.6517L26.6757 10.5419L26.7614 10.4372L26.8538 10.3387L26.9523 10.2463L27.0565 10.1606L27.1663 10.0821L27.2813 10.0108L27.4003 9.94713L27.5235 9.89119L27.6497 9.84347L27.7791 9.80447L27.9109 9.77368L28.0438 9.75161L28.1783 9.73827L28.3133 9.73416L26.2493 7.66968L26.2447 7.80465L26.2313 7.9391L26.2093 8.07252L26.1785 8.20389L26.1395 8.33321L26.0918 8.45945L26.0363 8.58261L25.9727 8.70166L25.9014 8.81662L25.8223 8.92643L25.7366 9.03061L25.6443 9.12914L25.5457 9.22151L25.4416 9.30721L25.3317 9.38623L25.2168 9.45756L25.0977 9.5212L24.9746 9.57662L24.8483 9.62434L24.719 9.66386L24.5877 9.69413L24.4542 9.7162L24.3198 9.72954L24.1848 9.73416L26.2493 11.7986Z" fill="#30CD7A"/>
<path id="Vector_23" d="M32.4422 13.8631C33.5824 13.8631 34.5067 12.9388 34.5067 11.7987C34.5067 10.6585 33.5824 9.73418 32.4422 9.73418C31.3021 9.73418 30.3778 10.6585 30.3778 11.7987C30.3778 12.9388 31.3021 13.8631 32.4422 13.8631Z" fill="#30CD7A"/>
<path id="Vector_24" d="M34.5067 11.7987H30.3778V15.9276H34.5067V11.7987Z" fill="#30CD7A"/>
<path id="Vector_25" d="M7.66941 17.9916C8.80959 17.9916 9.73389 17.0673 9.73389 15.9271C9.73389 14.7869 8.80959 13.8626 7.66941 13.8626C6.52923 13.8626 5.60493 14.7869 5.60493 15.9271C5.60493 17.0673 6.52923 17.9916 7.66941 17.9916Z" fill="#30CD7A"/>
<path id="Vector_26" d="M9.73389 15.9271H5.60493V20.0561H9.73389V15.9271Z" fill="#30CD7A"/>
<path id="Vector_27" d="M7.66925 17.9916L7.80421 17.9962L7.93866 18.0096L8.07209 18.0311L8.20346 18.0619L8.33278 18.1014L8.45902 18.1486L8.58218 18.2046L8.70123 18.2682L8.81618 18.3395L8.926 18.4181L9.03017 18.5038L9.1287 18.5961L9.22107 18.6952L9.30677 18.7993L9.3858 18.9092L9.45713 19.0241L9.52076 19.1432L9.57619 19.2663L9.62391 19.3926L9.66342 19.5219L9.6937 19.6533L9.71577 19.7867L9.72911 19.9211L9.73373 20.0561L11.7982 17.9916L11.6627 17.9875L11.5283 17.9742L11.3954 17.9521L11.2635 17.9213L11.1342 17.8823L11.0079 17.8346L10.8848 17.7786L10.7657 17.715L10.6513 17.6437L10.5415 17.5652L10.4368 17.4795L10.3382 17.3871L10.2459 17.2886L10.1602 17.1839L10.0817 17.0741L10.0103 16.9596L9.9467 16.8406L9.89076 16.7174L9.84303 16.5907L9.80403 16.4613L9.77324 16.33L9.75118 16.1965L9.73784 16.0621L9.73373 15.9271L7.66925 17.9916Z" fill="#30CD7A"/>
<path id="Vector_28" d="M15.9267 17.9916C17.0669 17.9916 17.9912 17.0673 17.9912 15.9271C17.9912 14.7869 17.0669 13.8626 15.9267 13.8626C14.7865 13.8626 13.8622 14.7869 13.8622 15.9271C13.8622 17.0673 14.7865 17.9916 15.9267 17.9916Z" fill="#30CD7A"/>
<path id="Vector_29" d="M20.0558 13.8626H15.9269V17.9916H20.0558V13.8626Z" fill="#30CD7A"/>
<path id="Vector_30" d="M15.9269 17.9916L16.0618 17.9962L16.1963 18.0096L16.3297 18.0311L16.4611 18.0619L16.5904 18.1014L16.7171 18.1486L16.8403 18.2046L16.9594 18.2682L17.0738 18.3395L17.1836 18.4181L17.2883 18.5038L17.3868 18.5961L17.4792 18.6952L17.5649 18.7993L17.6434 18.9092L17.7147 19.0241L17.7784 19.1432L17.8343 19.2663L17.882 19.3926L17.921 19.5219L17.9518 19.6533L17.9739 19.7867L17.9872 19.9211L17.9913 20.0561L20.0558 17.9916L19.9209 17.9875L19.7864 17.9742L19.653 17.9521L19.5216 17.9213L19.3923 17.8823L19.2661 17.8346L19.1429 17.7786L19.0238 17.715L18.9089 17.6437L18.7991 17.5652L18.6949 17.4795L18.5959 17.3871L18.5035 17.2886L18.4178 17.1839L18.3393 17.0741L18.2679 16.9596L18.2043 16.8406L18.1484 16.7174L18.1012 16.5907L18.0616 16.4613L18.0309 16.33L18.0093 16.1965L17.996 16.0621L17.9913 15.9271L15.9269 17.9916Z" fill="#30CD7A"/>
<path id="Vector_31" d="M17.9913 15.9271L17.996 15.7921L18.0093 15.6577L18.0309 15.5243L18.0616 15.3929L18.1012 15.2636L18.1484 15.1373L18.2043 15.0142L18.2679 14.8951L18.3393 14.7802L18.4178 14.6704L18.5035 14.5662L18.5959 14.4677L18.6949 14.3753L18.7991 14.2896L18.9089 14.2106L19.0238 14.1392L19.1429 14.0756L19.2661 14.0202L19.3923 13.9725L19.5216 13.9334L19.653 13.9027L19.7864 13.8806L19.9209 13.8673L20.0558 13.8626L17.9913 11.7987L17.9872 11.9336L17.9739 12.0681L17.9518 12.201L17.921 12.3329L17.882 12.4622L17.8343 12.5884L17.7784 12.7116L17.7147 12.8306L17.6434 12.9456L17.5649 13.0554L17.4792 13.1596L17.3868 13.2581L17.2883 13.3505L17.1836 13.4362L17.0738 13.5147L16.9594 13.586L16.8403 13.6502L16.7171 13.7056L16.5904 13.7533L16.4611 13.7923L16.3297 13.8231L16.1963 13.8452L16.0618 13.8585L15.9269 13.8626L17.9913 15.9271Z" fill="#30CD7A"/>
<path id="Vector_32" d="M20.0557 17.9916C21.1958 17.9916 22.1201 17.0673 22.1201 15.9271C22.1201 14.7869 21.1958 13.8626 20.0557 13.8626C18.9155 13.8626 17.9912 14.7869 17.9912 15.9271C17.9912 17.0673 18.9155 17.9916 20.0557 17.9916Z" fill="#30CD7A"/>
<path id="Vector_33" d="M24.1848 13.8626H20.0558V17.9916H24.1848V13.8626Z" fill="#30CD7A"/>
<path id="Vector_34" d="M22.1201 15.9271H17.9912V20.0561H22.1201V15.9271Z" fill="#30CD7A"/>
<path id="Vector_35" d="M22.1203 15.9271L22.1244 15.7921L22.1378 15.6577L22.1598 15.5243L22.1906 15.3929L22.2296 15.2636L22.2773 15.1373L22.3333 15.0142L22.3969 14.8951L22.4682 14.7802L22.5468 14.6704L22.6325 14.5662L22.7248 14.4677L22.8234 14.3753L22.928 14.2896L23.0379 14.2106L23.1523 14.1392L23.2714 14.0756L23.3945 14.0202L23.5213 13.9725L23.6506 13.9334L23.782 13.9027L23.9154 13.8806L24.0498 13.8673L24.1848 13.8626L22.1203 11.7987L22.1157 11.9336L22.1024 12.0681L22.0808 12.201L22.05 12.3329L22.0105 12.4622L21.9633 12.5884L21.9074 12.7116L21.8437 12.8306L21.7724 12.9456L21.6939 13.0554L21.6082 13.1596L21.5158 13.2581L21.4168 13.3505L21.3126 13.4362L21.2028 13.5147L21.0878 13.586L20.9688 13.6502L20.8456 13.7056L20.7194 13.7533L20.59 13.7923L20.4587 13.8231L20.3253 13.8452L20.1908 13.8585L20.0558 13.8626L22.1203 15.9271Z" fill="#30CD7A"/>
<path id="Vector_36" d="M24.1846 17.9916C25.3248 17.9916 26.2491 17.0673 26.2491 15.9271C26.2491 14.7869 25.3248 13.8626 24.1846 13.8626C23.0445 13.8626 22.1202 14.7869 22.1202 15.9271C22.1202 17.0673 23.0445 17.9916 24.1846 17.9916Z" fill="#30CD7A"/>
<path id="Vector_37" d="M24.1848 17.9916L24.3198 17.9962L24.4542 18.0095L24.5877 18.0311L24.719 18.0619L24.8483 18.1014L24.9746 18.1486L25.0977 18.2045L25.2168 18.2682L25.3317 18.3395L25.4416 18.418L25.5457 18.5037L25.6443 18.5961L25.7366 18.6951L25.8223 18.7993L25.9014 18.9091L25.9727 19.0241L26.0363 19.1431L26.0918 19.2663L26.1395 19.3925L26.1785 19.5218L26.2093 19.6532L26.2313 19.7866L26.2447 19.9211L26.2493 20.0561L28.3133 17.9916L28.1783 17.9875L28.0438 17.9741L27.9109 17.9521L27.7791 17.9213L27.6497 17.8823L27.5235 17.8345L27.4003 17.7786L27.2813 17.715L27.1663 17.6436L27.0565 17.5651L26.9523 17.4794L26.8538 17.3871L26.7614 17.2885L26.6757 17.1838L26.5972 17.074L26.5259 16.9596L26.4617 16.8405L26.4063 16.7174L26.3586 16.5906L26.3196 16.4613L26.2888 16.3299L26.2667 16.1965L26.2534 16.0621L26.2493 15.9271L24.1848 17.9916Z" fill="#30CD7A"/>
<path id="Vector_38" d="M32.4422 17.9916C33.5824 17.9916 34.5067 17.0673 34.5067 15.9271C34.5067 14.7869 33.5824 13.8626 32.4422 13.8626C31.3021 13.8626 30.3778 14.7869 30.3778 15.9271C30.3778 17.0673 31.3021 17.9916 32.4422 17.9916Z" fill="#30CD7A"/>
<path id="Vector_39" d="M34.5067 15.9271H30.3778V20.0561H34.5067V15.9271Z" fill="#30CD7A"/>
<path id="Vector_40" d="M7.66941 22.1206C8.80959 22.1206 9.73389 21.1963 9.73389 20.0561C9.73389 18.9159 8.80959 17.9916 7.66941 17.9916C6.52923 17.9916 5.60493 18.9159 5.60493 20.0561C5.60493 21.1963 6.52923 22.1206 7.66941 22.1206Z" fill="#30CD7A"/>
<path id="Vector_41" d="M11.7982 17.9916H7.66925V22.1206H11.7982V17.9916Z" fill="#30CD7A"/>
<path id="Vector_42" d="M11.7984 22.1206C12.9386 22.1206 13.8629 21.1963 13.8629 20.0561C13.8629 18.9159 12.9386 17.9916 11.7984 17.9916C10.6582 17.9916 9.73391 18.9159 9.73391 20.0561C9.73391 21.1963 10.6582 22.1206 11.7984 22.1206Z" fill="#30CD7A"/>
<path id="Vector_43" d="M13.8622 20.0561L13.8668 19.9211L13.8802 19.7867L13.9022 19.6533L13.933 19.5219L13.972 19.3926L14.0197 19.2663L14.0752 19.1432L14.1388 19.0241L14.2101 18.9092L14.2892 18.7993L14.3748 18.6952L14.4672 18.5961L14.5657 18.5038L14.6699 18.4181L14.7797 18.3395L14.8947 18.2682L15.0137 18.2046L15.1369 18.1486L15.2631 18.1014L15.3925 18.0619L15.5238 18.0311L15.6573 18.0096L15.7917 17.9962L15.9267 17.9916L13.8622 15.9271L13.8581 16.0621L13.8447 16.1965L13.8227 16.33L13.7919 16.4613L13.7529 16.5907L13.7052 16.7174L13.6497 16.8406L13.5856 16.9596L13.5143 17.0741L13.4358 17.1839L13.3501 17.2886L13.2577 17.3871L13.1592 17.4795L13.055 17.5652L12.9452 17.6437L12.8302 17.715L12.7112 17.7786L12.588 17.8346L12.4618 17.8823L12.3324 17.9213L12.2006 17.9521L12.0676 17.9742L11.9332 17.9875L11.7982 17.9916L13.8622 20.0561Z" fill="#30CD7A"/>
<path id="Vector_44" d="M20.0557 22.1206C21.1958 22.1206 22.1201 21.1963 22.1201 20.0561C22.1201 18.9159 21.1958 17.9916 20.0557 17.9916C18.9155 17.9916 17.9912 18.9159 17.9912 20.0561C17.9912 21.1963 18.9155 22.1206 20.0557 22.1206Z" fill="#30CD7A"/>
<path id="Vector_45" d="M22.1201 20.0561H17.9912V24.1851H22.1201V20.0561Z" fill="#30CD7A"/>
<path id="Vector_46" d="M22.1203 20.0561L22.1244 19.9211L22.1378 19.7867L22.1598 19.6533L22.1906 19.5219L22.2296 19.3926L22.2773 19.2663L22.3333 19.1432L22.3969 19.0241L22.4682 18.9092L22.5468 18.7993L22.6325 18.6952L22.7248 18.5961L22.8234 18.5038L22.928 18.4181L23.0379 18.3395L23.1523 18.2682L23.2714 18.2046L23.3945 18.1486L23.5213 18.1014L23.6506 18.0619L23.782 18.0311L23.9154 18.0096L24.0498 17.9962L24.1848 17.9916L22.1203 15.9271L22.1157 16.0621L22.1024 16.1965L22.0808 16.33L22.05 16.4613L22.0105 16.5907L21.9633 16.7174L21.9074 16.8406L21.8437 16.9596L21.7724 17.0741L21.6939 17.1839L21.6082 17.2886L21.5158 17.3871L21.4168 17.4795L21.3126 17.5652L21.2028 17.6437L21.0878 17.715L20.9688 17.7786L20.8456 17.8346L20.7194 17.8823L20.59 17.9213L20.4587 17.9521L20.3253 17.9742L20.1908 17.9875L20.0558 17.9916L22.1203 20.0561Z" fill="#30CD7A"/>
<path id="Vector_47" d="M28.3133 22.1206C29.4535 22.1206 30.3778 21.1963 30.3778 20.0561C30.3778 18.9159 29.4535 17.9916 28.3133 17.9916C27.1731 17.9916 26.2488 18.9159 26.2488 20.0561C26.2488 21.1963 27.1731 22.1206 28.3133 22.1206Z" fill="#30CD7A"/>
<path id="Vector_48" d="M32.4421 17.9916H28.3131V22.1206H32.4421V17.9916Z" fill="#30CD7A"/>
<path id="Vector_49" d="M30.3776 20.0561L30.3822 19.9211L30.3956 19.7867L30.4176 19.6533L30.4479 19.5219L30.4874 19.3926L30.5351 19.2663L30.5906 19.1432L30.6542 19.0241L30.7255 18.9092L30.8046 18.7993L30.8902 18.6952L30.9826 18.5961L31.0811 18.5038L31.1853 18.4181L31.2951 18.3395L31.4101 18.2682L31.5291 18.2046L31.6523 18.1486L31.7785 18.1014L31.9079 18.0619L32.0392 18.0311L32.1727 18.0096L32.3071 17.9962L32.4421 17.9916L30.3776 15.9271L30.3735 16.0621L30.3601 16.1965L30.3381 16.33L30.3073 16.4613L30.2683 16.5907L30.2206 16.7174L30.1646 16.8406L30.101 16.9596L30.0297 17.0741L29.9511 17.1839L29.8654 17.2886L29.7731 17.3871L29.6746 17.4795L29.5699 17.5652L29.46 17.6437L29.3456 17.715L29.2266 17.7786L29.1034 17.8346L28.9772 17.8823L28.8478 17.9213L28.716 17.9521L28.583 17.9742L28.4486 17.9875L28.3131 17.9916L30.3776 20.0561Z" fill="#30CD7A"/>
<path id="Vector_50" d="M32.4422 22.1206C33.5824 22.1206 34.5067 21.1963 34.5067 20.0561C34.5067 18.9159 33.5824 17.9916 32.4422 17.9916C31.3021 17.9916 30.3778 18.9159 30.3778 20.0561C30.3778 21.1963 31.3021 22.1206 32.4422 22.1206Z" fill="#30CD7A"/>
<path id="Vector_51" d="M20.0557 26.2496C21.1958 26.2496 22.1201 25.3253 22.1201 24.1851C22.1201 23.0449 21.1958 22.1206 20.0557 22.1206C18.9155 22.1206 17.9912 23.0449 17.9912 24.1851C17.9912 25.3253 18.9155 26.2496 20.0557 26.2496Z" fill="#30CD7A"/>
<path id="Vector_52" d="M22.1201 24.1851H17.9912V28.314H22.1201V24.1851Z" fill="#30CD7A"/>
<path id="Vector_53" d="M20.0558 26.2496L20.1908 26.2537L20.3253 26.267L20.4587 26.2891L20.59 26.3199L20.7194 26.3589L20.8456 26.4066L20.9688 26.462L21.0878 26.5262L21.2028 26.5975L21.3126 26.676L21.4168 26.7617L21.5158 26.8541L21.6082 26.9526L21.6939 27.0568L21.7724 27.1666L21.8437 27.2815L21.9074 27.4006L21.9633 27.5238L22.0105 27.65L22.05 27.7793L22.0808 27.9112L22.1024 28.0441L22.1157 28.1786L22.1203 28.3135L24.1848 26.2496L24.0498 26.2449L23.9154 26.2316L23.782 26.2095L23.6506 26.1787L23.5213 26.1397L23.3945 26.092L23.2714 26.0366L23.1523 25.973L23.0379 25.9016L22.928 25.8226L22.8234 25.7369L22.7248 25.6445L22.6325 25.546L22.5468 25.4418L22.4682 25.332L22.3969 25.2171L22.3333 25.098L22.2773 24.9748L22.2296 24.8486L22.1906 24.7193L22.1598 24.5879L22.1378 24.4545L22.1244 24.32L22.1203 24.1851L20.0558 26.2496Z" fill="#30CD7A"/>
<path id="Vector_54" d="M15.9267 30.378C17.0669 30.378 17.9912 29.4537 17.9912 28.3135C17.9912 27.1734 17.0669 26.2491 15.9267 26.2491C14.7865 26.2491 13.8622 27.1734 13.8622 28.3135C13.8622 29.4537 14.7865 30.378 15.9267 30.378Z" fill="#30CD7A"/>
<path id="Vector_55" d="M20.0558 26.2496H15.9269V30.3785H20.0558V26.2496Z" fill="#30CD7A"/>
<path id="Vector_56" d="M17.9912 28.3135H13.8622V32.4425H17.9912V28.3135Z" fill="#30CD7A"/>
<path id="Vector_57" d="M17.9913 28.3135L17.996 28.1786L18.0093 28.0441L18.0309 27.9112L18.0616 27.7793L18.1012 27.65L18.1484 27.5238L18.2043 27.4006L18.2679 27.2815L18.3393 27.1666L18.4178 27.0568L18.5035 26.9526L18.5959 26.8541L18.6949 26.7617L18.7991 26.676L18.9089 26.5975L19.0238 26.5262L19.1429 26.462L19.2661 26.4066L19.3923 26.3589L19.5216 26.3199L19.653 26.2891L19.7864 26.267L19.9209 26.2537L20.0558 26.2496L17.9913 24.1851L17.9872 24.32L17.9739 24.4545L17.9518 24.5879L17.921 24.7193L17.882 24.8486L17.8343 24.9748L17.7784 25.098L17.7147 25.2171L17.6434 25.332L17.5649 25.4418L17.4792 25.546L17.3868 25.6445L17.2883 25.7369L17.1836 25.8226L17.0738 25.9016L16.9594 25.973L16.8403 26.0366L16.7171 26.092L16.5904 26.1397L16.4611 26.1787L16.3297 26.2095L16.1963 26.2316L16.0618 26.2449L15.9269 26.2496L17.9913 28.3135Z" fill="#30CD7A"/>
<path id="Vector_58" d="M20.0557 30.378C21.1958 30.378 22.1201 29.4537 22.1201 28.3135C22.1201 27.1734 21.1958 26.2491 20.0557 26.2491C18.9155 26.2491 17.9912 27.1734 17.9912 28.3135C17.9912 29.4537 18.9155 30.378 20.0557 30.378Z" fill="#30CD7A"/>
<path id="Vector_59" d="M24.1848 26.2496H20.0558V30.3785H24.1848V26.2496Z" fill="#30CD7A"/>
<path id="Vector_60" d="M20.0558 30.378L20.1908 30.3826L20.3253 30.396L20.4587 30.4181L20.59 30.4483L20.7194 30.4878L20.8456 30.5356L20.9688 30.591L21.0878 30.6546L21.2028 30.726L21.3126 30.805L21.4168 30.8907L21.5158 30.9831L21.6082 31.0816L21.6939 31.1858L21.7724 31.2956L21.8437 31.4105L21.9074 31.5296L21.9633 31.6527L22.0105 31.779L22.05 31.9083L22.0808 32.0397L22.1024 32.1731L22.1157 32.3075L22.1203 32.4425L24.1848 30.378L24.0498 30.3739L23.9154 30.3606L23.782 30.3385L23.6506 30.3077L23.5213 30.2687L23.3945 30.221L23.2714 30.1651L23.1523 30.1014L23.0379 30.0301L22.928 29.9516L22.8234 29.8659L22.7248 29.7735L22.6325 29.675L22.5468 29.5703L22.4682 29.4605L22.3969 29.346L22.3333 29.227L22.2773 29.1038L22.2296 28.9776L22.1906 28.8483L22.1598 28.7164L22.1378 28.5835L22.1244 28.449L22.1203 28.3135L20.0558 30.378Z" fill="#30CD7A"/>
<path id="Vector_61" d="M24.1846 30.378C25.3248 30.378 26.2491 29.4537 26.2491 28.3135C26.2491 27.1734 25.3248 26.2491 24.1846 26.2491C23.0445 26.2491 22.1202 27.1734 22.1202 28.3135C22.1202 29.4537 23.0445 30.378 24.1846 30.378Z" fill="#30CD7A"/>
<path id="Vector_62" d="M26.2491 28.3135H22.1202V32.4425H26.2491V28.3135Z" fill="#30CD7A"/>
<path id="Vector_63" d="M15.9267 34.5068C17.0669 34.5068 17.9912 33.5825 17.9912 32.4423C17.9912 31.3022 17.0669 30.3779 15.9267 30.3779C14.7865 30.3779 13.8622 31.3022 13.8622 32.4423C13.8622 33.5825 14.7865 34.5068 15.9267 34.5068Z" fill="#30CD7A"/>
<path id="Vector_64" d="M17.9913 32.4425L17.996 32.3075L18.0093 32.1731L18.0309 32.0397L18.0616 31.9083L18.1012 31.779L18.1484 31.6527L18.2043 31.5296L18.2679 31.4105L18.3393 31.2956L18.4178 31.1858L18.5035 31.0816L18.5959 30.9831L18.6949 30.8907L18.7991 30.805L18.9089 30.726L19.0238 30.6546L19.1429 30.591L19.2661 30.5356L19.3923 30.4878L19.5216 30.4483L19.653 30.4181L19.7864 30.396L19.9209 30.3826L20.0558 30.378L17.9913 28.3135L17.9872 28.449L17.9739 28.5835L17.9518 28.7164L17.921 28.8483L17.882 28.9776L17.8343 29.1038L17.7784 29.227L17.7147 29.346L17.6434 29.4605L17.5649 29.5703L17.4792 29.675L17.3868 29.7735L17.2883 29.8659L17.1836 29.9516L17.0738 30.0301L16.9594 30.1014L16.8403 30.1651L16.7171 30.221L16.5904 30.2687L16.4611 30.3077L16.3297 30.3385L16.1963 30.3606L16.0618 30.3739L15.9269 30.378L17.9913 32.4425Z" fill="#30CD7A"/>
<path id="Vector_65" d="M24.1846 34.5068C25.3248 34.5068 26.2491 33.5825 26.2491 32.4423C26.2491 31.3022 25.3248 30.3779 24.1846 30.3779C23.0445 30.3779 22.1202 31.3022 22.1202 32.4423C22.1202 33.5825 23.0445 34.5068 24.1846 34.5068Z" fill="#30CD7A"/>
</g>
<path id="Vector_66" d="M27.5172 32.2527C27.4782 32.2766 27.4393 32.3005 27.4003 32.3244C27.449 32.2961 27.4094 32.3191 27.5172 32.2527Z" fill="black"/>
</g>
</g>
<defs>
<filter id="filter0_d_0_755" x="-5.10092" y="-1.79817" width="50.2018" height="50.2018" filterUnits="userSpaceOnUse" color-interpolation-filters="sRGB">
<feFlood flood-opacity="0" result="BackgroundImageFix"/>
<feColorMatrix in="SourceAlpha" type="matrix" values="0 0 0 0 0 0 0 0 0 0 0 0 0 0 0 0 0 0 127 0" result="hardAlpha"/>
<feOffset dy="3.30275"/>
<feGaussianBlur stdDeviation="2.55046"/>
<feComposite in2="hardAlpha" operator="out"/>
<feColorMatrix type="matrix" values="0 0 0 0 0 0 0 0 0 0 0 0 0 0 0 0 0 0 0.25 0"/>
<feBlend mode="normal" in2="BackgroundImageFix" result="effect1_dropShadow_0_755"/>
<feBlend mode="normal" in="SourceGraphic" in2="effect1_dropShadow_0_755" result="shape"/>
</filter>
<clipPath id="clip0_0_755">
<rect width="40" height="40" rx="9.49367" fill="white"/>
</clipPath>
</defs>
</svg>
